HIERARCHY
ROOT joint_Root
{
	OFFSET 0.0 0.0 0.0
	CHANNELS 6 Xposition Yposition Zposition Zrotation Xrotation Yrotation 
	JOINT Hips
	{
		OFFSET -17.1583 93.1646 452.98
		CHANNELS 6 Xposition Yposition Zposition Zrotation Xrotation Yrotation 
		JOINT Spine
		{
			OFFSET 15.7357 0.0 0.0
			CHANNELS 6 Xposition Yposition Zposition Zrotation Xrotation Yrotation 
			JOINT Chest
			{
				OFFSET 8.98455 -0.406207 0.0
				CHANNELS 6 Xposition Yposition Zposition Zrotation Xrotation Yrotation 
				JOINT Neck
				{
					OFFSET 16.3773 0.0 0.0
					CHANNELS 6 Xposition Yposition Zposition Zrotation Xrotation Yrotation 
					JOINT Head
					{
						OFFSET 6.45672 0.0 0.0
						CHANNELS 6 Xposition Yposition Zposition Zrotation Xrotation Yrotation 
						End Site
						{
							OFFSET 0.0 0.0 0.0
						}
					}
				}
				JOINT Shoulder_L
				{
					OFFSET 12.9942 -0.242716 4.98039
					CHANNELS 6 Xposition Yposition Zposition Zrotation Xrotation Yrotation 
					JOINT UpperArm_L
					{
						OFFSET 5.34809 0.0 0.0
						CHANNELS 6 Xposition Yposition Zposition Zrotation Xrotation Yrotation 
						JOINT LowerArm_L
						{
							OFFSET 24.3286 1.87007e-05 0.0
							CHANNELS 6 Xposition Yposition Zposition Zrotation Xrotation Yrotation 
							JOINT Hand_L
							{
								OFFSET 22.2916 0.0 0.0
								CHANNELS 6 Xposition Yposition Zposition Zrotation Xrotation Yrotation 
								End Site
								{
									OFFSET 0.0 0.0 0.0
								}
							}
						}
					}
				}
				JOINT Shoulder_R
				{
					OFFSET 12.9945 -0.242716 -4.98039
					CHANNELS 6 Xposition Yposition Zposition Zrotation Xrotation Yrotation 
					JOINT UpperArm_R
					{
						OFFSET -5.34813 0.0 0.0
						CHANNELS 6 Xposition Yposition Zposition Zrotation Xrotation Yrotation 
						JOINT LowerArm_R
						{
							OFFSET -24.3289 0.000322201 0.0
							CHANNELS 6 Xposition Yposition Zposition Zrotation Xrotation Yrotation 
							JOINT Hand_R
							{
								OFFSET -22.2915 -0.000108084 0.0
								CHANNELS 6 Xposition Yposition Zposition Zrotation Xrotation Yrotation 
								End Site
								{
									OFFSET 0.0 0.0 0.0
								}
							}
						}
					}
				}
			}
		}
		JOINT UpperLeg_L
		{
			OFFSET -2.19248 -6.46944 0.0
			CHANNELS 6 Xposition Yposition Zposition Zrotation Xrotation Yrotation 
			JOINT LowerLeg_L
			{
				OFFSET 39.0811 0.0 -1.23785e-05
				CHANNELS 6 Xposition Yposition Zposition Zrotation Xrotation Yrotation 
				JOINT Foot_L
				{
					OFFSET 40.9854 0.0 -1.26872e-05
					CHANNELS 6 Xposition Yposition Zposition Zrotation Xrotation Yrotation 
					JOINT Toes_L
					{
						OFFSET 11.7543 0.0 0.0
						CHANNELS 6 Xposition Yposition Zposition Zrotation Xrotation Yrotation 
						End Site
						{
							OFFSET 0.0 0.0 0.0
						}
					}
				}
			}
		}
		JOINT UpperLeg_R
		{
			OFFSET -2.19251 6.46944 0.0
			CHANNELS 6 Xposition Yposition Zposition Zrotation Xrotation Yrotation 
			JOINT LowerLeg_R
			{
				OFFSET -39.0811 -0.00228153 -0.0401928
				CHANNELS 6 Xposition Yposition Zposition Zrotation Xrotation Yrotation 
				JOINT Foot_R
				{
					OFFSET -40.9854 0.0 0.0
					CHANNELS 6 Xposition Yposition Zposition Zrotation Xrotation Yrotation 
					JOINT Toes_R
					{
						OFFSET -11.7543 0.0 0.0
						CHANNELS 6 Xposition Yposition Zposition Zrotation Xrotation Yrotation 
						End Site
						{
							OFFSET 0.0 0.0 0.0
						}
					}
				}
			}
		}
	}
}
MOTION
Frames:	4
Frame Time:	0.0333333
0.000000 0.000000 0.000000 0.000000 0.000000 -0.000000 -1.315950 86.835100 14.378700 87.676100 1.661320 -6.332240 15.735700 0.000005 -0.000001 94.622100 84.848400 -92.564700 8.984550 -0.406207 -0.000000 2.494060 0.735022 4.094520 16.377300 -0.000001 -0.000001 -4.300360 0.482944 0.072422 6.456720 -0.000001 -0.000000 -3.418100 -0.086595 -4.430290 12.994200 -0.242716 4.980390 -92.658400 7.816060 -71.148700 5.348090 -0.000007 -0.000001 -60.760900 -18.327100 17.024500 24.328600 0.000019 0.000005 34.624600 29.404100 -54.584900 22.291600 -0.000001 0.000005 39.820600 4.046650 23.564800 12.994500 -0.242716 -4.980390 88.466600 5.279230 -73.778600 -5.348130 -0.000001 -0.000004 -67.491200 -2.514850 -2.952990 -24.328900 0.000322 -0.000009 9.137960 5.829160 -57.734400 -22.291500 -0.000108 -0.000004 54.161600 5.258940 1.195280 -2.192480 -6.469440 -0.000000 -178.750000 0.956721 -39.788900 39.081100 -0.000007 -0.000012 -0.081427 0.008358 84.145000 40.985400 -0.000006 -0.000013 -2.710750 -9.534340 -60.127400 11.754300 -0.000000 0.000003 0.002228 0.056718 -14.276200 -2.192510 6.469440 -0.000001 -174.326000 8.898900 167.898000 -39.081100 -0.002282 -0.040193 0.015031 -0.012050 44.312500 -40.985400 0.000008 0.000006 -3.704670 4.646160 -82.869800 -11.754300 -0.000006 -0.000006 0.000889 0.016605 -15.899700
0.000000 0.000000 0.000000 0.000000 0.000000 -0.000000 -0.588488 90.121100 23.216700 91.225300 0.655921 -8.778940 15.735700 0.000005 -0.000001 105.957000 85.393600 -105.591000 8.984550 -0.406207 -0.000000 1.085280 2.510350 0.706478 16.377300 -0.000001 -0.000001 -4.760810 -0.286096 0.736028 6.456720 -0.000001 -0.000000 -3.423680 -1.872270 -2.688790 12.994200 -0.242716 4.980390 -92.084300 6.061550 -70.983000 5.348090 -0.000007 -0.000001 -56.624000 -21.782200 21.114900 24.328600 0.000019 0.000005 30.920700 28.253500 -51.680500 22.291600 -0.000001 0.000005 36.770200 3.962850 24.753800 12.994500 -0.242716 -4.980390 88.863400 4.111050 -74.532000 -5.348130 -0.000001 -0.000004 -69.330000 -1.576280 -2.911990 -24.328900 0.000322 -0.000009 11.129300 4.373420 -68.806500 -22.291500 -0.000108 -0.000004 52.901000 5.261950 1.115210 -2.192480 -6.469440 -0.000000 177.221000 3.682850 -42.231900 39.081100 -0.000007 -0.000012 -0.066679 0.025556 69.033900 40.985400 -0.000006 -0.000013 -2.652070 -11.345400 -64.337700 11.754300 -0.000000 0.000003 0.002152 0.053014 -14.426400 -2.192510 6.469440 -0.000001 -179.679000 9.532550 175.036000 -39.081100 -0.002282 -0.040193 0.032220 -0.043480 33.634800 -40.985400 0.000008 0.000006 -5.280490 6.496860 -69.346700 -11.754300 -0.000006 -0.000006 -0.027888 -0.207618 -25.073800
0.000000 0.000000 0.000000 0.000000 0.000000 -0.000000 -0.019758 93.065200 32.063800 93.389900 -0.564832 -11.265100 15.735700 0.000005 -0.000001 118.929000 85.859000 -119.755000 8.984550 -0.406207 -0.000000 -0.486755 4.064840 -1.635970 16.377300 -0.000001 -0.000001 -5.183080 -0.854962 0.869682 6.456720 -0.000001 -0.000000 -3.136830 -3.305920 -1.249360 12.994200 -0.242716 4.980390 -91.486200 4.223060 -70.591500 5.348090 -0.000007 -0.000001 -53.107600 -23.761500 25.438700 24.328600 0.000019 0.000005 29.896000 27.310400 -51.409200 22.291600 -0.000001 0.000005 36.253700 3.886610 25.813000 12.994500 -0.242716 -4.980390 89.327100 2.555020 -75.241100 -5.348130 -0.000001 -0.000004 -70.994900 -0.032584 -2.528840 -24.328900 0.000322 -0.000009 13.744600 3.179070 -77.225700 -22.291500 -0.000108 -0.000004 52.411000 5.278130 0.677461 -2.192480 -6.469440 -0.000000 175.931000 6.245490 -42.004500 39.081100 -0.000007 -0.000012 -0.011979 0.010089 49.905300 40.985400 -0.000006 -0.000013 -2.714340 -8.945890 -65.729600 11.754300 -0.000000 0.000003 0.002140 0.052475 -14.448300 -2.192510 6.469440 -0.000001 177.442000 8.160450 179.706000 -39.081100 -0.002282 -0.040193 0.033090 -0.064967 24.623600 -40.985400 0.000008 0.000006 -2.254230 6.083370 -51.717000 -11.754300 -0.000006 -0.000006 -0.069116 -0.360325 -31.489500
0.000000 0.000000 0.000000 0.000000 0.000000 -0.000000 -0.142363 94.784900 41.515700 91.917600 -0.809229 -10.900900 15.735700 0.000005 -0.000001 124.203000 85.618700 -124.733000 8.984550 -0.406207 -0.000000 -0.494597 4.962760 -1.039110 16.377300 -0.000001 -0.000001 -5.194960 -1.010610 0.676145 6.456720 -0.000001 -0.000000 -2.999160 -4.233470 -0.841168 12.994200 -0.242716 4.980390 -91.334100 3.646130 -69.886500 5.348090 -0.000007 -0.000001 -49.596200 -24.469700 29.435500 24.328600 0.000019 0.000005 30.962100 26.653500 -53.214400 22.291600 -0.000001 0.000005 37.956700 3.805980 26.917000 12.994500 -0.242716 -4.980390 89.446400 2.142290 -75.508400 -5.348130 -0.000001 -0.000004 -70.952100 1.980480 -2.696130 -24.328900 0.000322 -0.000009 14.538000 2.025220 -82.240300 -22.291500 -0.000108 -0.000004 52.336400 5.309580 -0.197902 -2.192480 -6.469440 -0.000000 178.829000 7.665170 -37.608600 39.081100 -0.000007 -0.000012 0.008024 -0.013297 31.106100 40.985400 -0.000006 -0.000013 -3.522290 -3.127970 -67.321100 11.754300 -0.000000 0.000003 0.001991 0.046377 -14.695600 -2.192510 6.469440 -0.000001 179.649000 3.768740 -175.420000 -39.081100 -0.002282 -0.040193 0.011736 -0.022435 20.562300 -40.985400 0.000008 0.000006 1.055870 3.733280 -36.667100 -11.754300 -0.000006 -0.000006 -0.006445 -0.074823 -19.618700
